<?xml version="1.0" encoding="UTF-8" standalone="no"?>
<svg
   xmlns="http://www.w3.org/2000/svg"
   width="100"
   height="100"
   viewBox="0 0 100 100"
   id="omen-keepbelow">
  <g
     id="active-center">
    <rect x="0" y="0" width="100" height="100" style="fill:none" />
    <path d="M 50 76 L 23 40 L 77 40 Z"
          style="fill:none;stroke:#D9D9DE;stroke-width:7;stroke-linejoin:round" />
    <path d="M 22 24 L 78 24"
          style="fill:none;stroke:#D9D9DE;stroke-width:7;stroke-linecap:round" />
  </g>
  <g
     id="hover-center">
    <rect x="0" y="0" width="100" height="100" style="fill:none" />
    <path d="M 50 76 L 23 40 L 77 40 Z"
          style="fill:none;stroke:#E31937;stroke-width:7;stroke-linejoin:round" />
    <path d="M 22 24 L 78 24"
          style="fill:none;stroke:#E31937;stroke-width:7;stroke-linecap:round" />
  </g>
  <g
     id="pressed-center">
    <rect x="0" y="0" width="100" height="100" style="fill:none" />
    <path d="M 50 76 L 23 40 L 77 40 Z"
          style="fill:none;stroke:#C8102E;stroke-width:7;stroke-linejoin:round" />
    <path d="M 22 24 L 78 24"
          style="fill:none;stroke:#C8102E;stroke-width:7;stroke-linecap:round" />
  </g>
  <g
     id="inactive-center">
    <rect x="0" y="0" width="100" height="100" style="fill:none" />
    <path d="M 50 76 L 23 40 L 77 40 Z"
          style="fill:none;stroke:#8A8A93;stroke-width:7;stroke-linejoin:round" />
    <path d="M 22 24 L 78 24"
          style="fill:none;stroke:#8A8A93;stroke-width:7;stroke-linecap:round" />
  </g>
  <g
     id="deactivated-center">
    <rect x="0" y="0" width="100" height="100" style="fill:none" />
    <path d="M 50 76 L 23 40 L 77 40 Z"
          style="fill:none;stroke:#55555E;stroke-width:7;stroke-linejoin:round;opacity:0.55" />
    <path d="M 22 24 L 78 24"
          style="fill:none;stroke:#55555E;stroke-width:7;stroke-linecap:round;opacity:0.55" />
  </g>
</svg>
